<svg width="500" height="500" xmlns="http://www.w3.org/2000/svg">
  <rect width="100%" height="100%" fill="#F9F5F0"/>
  <circle cx="250" cy="200" r="90" fill="#F8E5E5"/>
  <path d="M250,130 Q280,170 250,210 Q220,170 250,130" fill="#D14D72" transform="rotate(0 250 170)"/>
  <path d="M250,130 Q280,170 250,210 Q220,170 250,130" fill="#D14D72" transform="rotate(60 250 170)"/>
  <path d="M250,130 Q280,170 250,210 Q220,170 250,130" fill="#D14D72" transform="rotate(120 250 170)"/>
  <path d="M250,130 Q280,170 250,210 Q220,170 250,130" fill="#D14D72" transform="rotate(180 250 170)"/>
  <path d="M250,130 Q280,170 250,210 Q220,170 250,130" fill="#D14D72" transform="rotate(240 250 170)"/>
  <path d="M250,130 Q280,170 250,210 Q220,170 250,130" fill="#D14D72" transform="rotate(300 250 170)"/>
  <circle cx="250" cy="170" r="20" fill="#D14D72"/>
  <text x="250" y="350" font-family="Arial" font-size="24" text-anchor="middle" fill="#D14D72">Hibiscus Face Mask</text>
  <text x="250" y="380" font-family="Arial" font-size="18" text-anchor="middle" fill="#4A7C59">Exfoliating Formula</text>
</svg> 