<svg width="600" height="600" xmlns="http://www.w3.org/2000/svg">
  <rect width="100%" height="100%" fill="#F9F5F0"/>
  <rect x="50" y="50" width="500" height="500" fill="#E6D2B5"/>
  
  <!-- Texture pattern -->
  <path d="M100,100 Q150,120 200,100 Q250,80 300,100 Q350,120 400,100 Q450,80 500,100" fill="none" stroke="#D4A76A" stroke-width="2"/>
  <path d="M100,150 Q150,170 200,150 Q250,130 300,150 Q350,170 400,150 Q450,130 500,150" fill="none" stroke="#D4A76A" stroke-width="2"/>
  <path d="M100,200 Q150,220 200,200 Q250,180 300,200 Q350,220 400,200 Q450,180 500,200" fill="none" stroke="#D4A76A" stroke-width="2"/>
  <path d="M100,250 Q150,270 200,250 Q250,230 300,250 Q350,270 400,250 Q450,230 500,250" fill="none" stroke="#D4A76A" stroke-width="2"/>
  <path d="M100,300 Q150,320 200,300 Q250,280 300,300 Q350,320 400,300 Q450,280 500,300" fill="none" stroke="#D4A76A" stroke-width="2"/>
  <path d="M100,350 Q150,370 200,350 Q250,330 300,350 Q350,370 400,350 Q450,330 500,350" fill="none" stroke="#D4A76A" stroke-width="2"/>
  <path d="M100,400 Q150,420 200,400 Q250,380 300,400 Q350,420 400,400 Q450,380 500,400" fill="none" stroke="#D4A76A" stroke-width="2"/>
  <path d="M100,450 Q150,470 200,450 Q250,430 300,450 Q350,470 400,450 Q450,430 500,450" fill="none" stroke="#D4A76A" stroke-width="2"/>
  
  <!-- Small circles to represent texture -->
  <circle cx="150" cy="200" r="5" fill="#D4A76A"/>
  <circle cx="250" cy="150" r="5" fill="#D4A76A"/>
  <circle cx="350" cy="200" r="5" fill="#D4A76A"/>
  <circle cx="450" cy="150" r="5" fill="#D4A76A"/>
  <circle cx="150" cy="300" r="5" fill="#D4A76A"/>
  <circle cx="250" cy="250" r="5" fill="#D4A76A"/>
  <circle cx="350" cy="300" r="5" fill="#D4A76A"/>
  <circle cx="450" cy="250" r="5" fill="#D4A76A"/>
  <circle cx="150" cy="400" r="5" fill="#D4A76A"/>
  <circle cx="250" cy="350" r="5" fill="#D4A76A"/>
  <circle cx="350" cy="400" r="5" fill="#D4A76A"/>
  <circle cx="450" cy="350" r="5" fill="#D4A76A"/>
  
  <text x="300" y="550" font-family="Arial" font-size="16" text-anchor="middle" fill="#8B5A2B">Shea Butter Texture Close-up</text>
</svg> 